ply
format ascii 1.0
element vertex 12
property float x
property float y
property float z
element face 12
property list uchar int vertex_indices
end_header
-77.549252 78.116049 0.000000
-82.557400 73.441473 0.000000
-82.557400 73.441473 12.000000
-77.549252 78.116049 12.000000
-86.754849 77.760730 0.000000
-86.754849 77.760730 12.000000
-89.269118 75.389984 0.000000
-89.269118 75.389984 12.000000
-107.766386 95.108482 0.000000
-107.766386 95.108482 12.000000
-59.205598 95.574829 0.000000
-59.205598 95.574829 12.000000
3 0 1 2
3 0 2 3
3 1 4 5
3 1 5 2
3 4 6 7
3 4 7 5
3 6 8 9
3 6 9 7
3 8 10 11
3 8 11 9
3 10 0 3
3 10 3 11
