ply
format ascii 1.0
element vertex 20
property float x
property float y
property float z
element face 20
property list uchar int vertex_indices
end_header
-61.694043 -6.009174 0.000000
-57.858666 -14.213239 0.000000
-57.858666 -14.213239 12.000000
-61.694043 -6.009174 12.000000
-55.128188 -24.129483 0.000000
-55.128188 -24.129483 12.000000
-67.505232 -46.746864 0.000000
-67.505232 -46.746864 12.000000
-69.750988 -47.891692 0.000000
-69.750988 -47.891692 12.000000
-87.342313 -55.934545 0.000000
-87.342313 -55.934545 12.000000
-97.330696 -33.910102 0.000000
-97.330696 -33.910102 12.000000
-89.880336 -30.290864 0.000000
-89.880336 -30.290864 12.000000
-74.128747 -22.621571 0.000000
-74.128747 -22.621571 12.000000
-78.347975 -13.853993 0.000000
-78.347975 -13.853993 12.000000
3 0 1 2
3 0 2 3
3 1 4 5
3 1 5 2
3 4 6 7
3 4 7 5
3 6 8 9
3 6 9 7
3 8 10 11
3 8 11 9
3 10 12 13
3 10 13 11
3 12 14 15
3 12 15 13
3 14 16 17
3 14 17 15
3 16 18 19
3 16 19 17
3 18 0 3
3 18 3 19
