ply
format ascii 1.0
element vertex 10
property float x
property float y
property float z
element face 8
property list uchar int vertex_indices
end_header
-80.263385 -29.664726 12.000000
-76.044157 -38.432304 12.000000
-59.774076 -30.023972 12.000000
-63.609453 -21.819907 12.000000
-57.043598 -39.940216 12.000000
-69.420642 -62.557597 12.000000
-71.666398 -63.702425 12.000000
-91.795746 -46.101597 12.000000
-89.257723 -71.745278 12.000000
-99.246106 -49.720835 12.000000
3 0 1 2
3 0 2 3
3 2 1 4
3 4 1 5
3 5 1 6
3 6 1 7
3 6 7 8
3 8 7 9
