ply
format ascii 1.0
element vertex 11
property float x
property float y
property float z
element face 9
property list uchar int vertex_indices
end_header
15.481976 80.823181 6.000000
49.270171 44.347884 6.000000
32.177266 96.453651 6.000000
71.218849 49.619486 6.000000
76.033067 96.875983 6.000000
97.897395 73.876423 6.000000
64.085538 28.386852 6.000000
78.363724 42.003468 6.000000
61.006299 31.560143 6.000000
53.300616 24.635185 6.000000
41.319220 37.420583 6.000000
3 0 1 2
3 2 1 3
3 2 3 4
3 4 3 5
3 6 7 8
3 9 8 1
3 9 1 10
3 1 8 3
3 3 8 7
