ply
format ascii 1.0
element vertex 20
property float x
property float y
property float z
element face 20
property list uchar int vertex_indices
end_header
-63.609453 -21.819907 0.000000
-59.774076 -30.023972 0.000000
-59.774076 -30.023972 12.000000
-63.609453 -21.819907 12.000000
-57.043598 -39.940216 0.000000
-57.043598 -39.940216 12.000000
-69.420642 -62.557597 0.000000
-69.420642 -62.557597 12.000000
-71.666398 -63.702425 0.000000
-71.666398 -63.702425 12.000000
-89.257723 -71.745278 0.000000
-89.257723 -71.745278 12.000000
-99.246106 -49.720835 0.000000
-99.246106 -49.720835 12.000000
-91.795746 -46.101597 0.000000
-91.795746 -46.101597 12.000000
-76.044157 -38.432304 0.000000
-76.044157 -38.432304 12.000000
-80.263385 -29.664726 0.000000
-80.263385 -29.664726 12.000000
3 0 1 2
3 0 2 3
3 1 4 5
3 1 5 2
3 4 6 7
3 4 7 5
3 6 8 9
3 6 9 7
3 8 10 11
3 8 11 9
3 10 12 13
3 10 13 11
3 12 14 15
3 12 15 13
3 14 16 17
3 14 17 15
3 16 18 19
3 16 19 17
3 18 0 3
3 18 3 19
