ply
format ascii 1.0
element vertex 22
property float x
property float y
property float z
element face 22
property list uchar int vertex_indices
end_header
97.897395 73.876423 0.000000
71.218849 49.619486 0.000000
71.218849 49.619486 6.000000
97.897395 73.876423 6.000000
78.363724 42.003468 0.000000
78.363724 42.003468 6.000000
64.085538 28.386852 0.000000
64.085538 28.386852 6.000000
61.006299 31.560143 0.000000
61.006299 31.560143 6.000000
53.300616 24.635185 0.000000
53.300616 24.635185 6.000000
41.319220 37.420583 0.000000
41.319220 37.420583 6.000000
49.270171 44.347884 0.000000
49.270171 44.347884 6.000000
15.481976 80.823181 0.000000
15.481976 80.823181 6.000000
32.177266 96.453651 0.000000
32.177266 96.453651 6.000000
76.033067 96.875983 0.000000
76.033067 96.875983 6.000000
3 0 1 2
3 0 2 3
3 1 4 5
3 1 5 2
3 4 6 7
3 4 7 5
3 6 8 9
3 6 9 7
3 8 10 11
3 8 11 9
3 10 12 13
3 10 13 11
3 12 14 15
3 12 15 13
3 14 16 17
3 14 17 15
3 16 18 19
3 16 19 17
3 18 20 21
3 18 21 19
3 20 0 3
3 20 3 21
