ply
format ascii 1.0
element vertex 34
property float x
property float y
property float z
element face 34
property list uchar int vertex_indices
end_header
-41.581926 -24.733315 0.000000
-42.748715 -20.006837 0.000000
-42.748715 -20.006837 12.000000
-41.581926 -24.733315 12.000000
-37.705877 -18.935205 0.000000
-37.705877 -18.935205 12.000000
-33.180085 -38.443020 0.000000
-33.180085 -38.443020 12.000000
-32.558177 -41.895779 0.000000
-32.558177 -41.895779 12.000000
-35.663484 -42.570667 0.000000
-35.663484 -42.570667 12.000000
-34.817384 -46.744158 0.000000
-34.817384 -46.744158 12.000000
-35.326990 -47.683249 0.000000
-35.326990 -47.683249 12.000000
-30.004748 -50.156633 0.000000
-30.004748 -50.156633 12.000000
-31.781740 -54.132912 0.000000
-31.781740 -54.132912 12.000000
-25.583072 -56.642351 0.000000
-25.583072 -56.642351 12.000000
-30.923354 -67.603726 0.000000
-30.923354 -67.603726 12.000000
-32.943502 -66.700074 0.000000
-32.943502 -66.700074 12.000000
-37.684915 -76.532430 0.000000
-37.684915 -76.532430 12.000000
-40.429983 -75.313224 0.000000
-40.429983 -75.313224 12.000000
-49.951737 -70.511340 0.000000
-49.951737 -70.511340 12.000000
-61.906656 -64.854230 0.000000
-61.906656 -64.854230 12.000000
3 0 1 2
3 0 2 3
3 1 4 5
3 1 5 2
3 4 6 7
3 4 7 5
3 6 8 9
3 6 9 7
3 8 10 11
3 8 11 9
3 10 12 13
3 10 13 11
3 12 14 15
3 12 15 13
3 14 16 17
3 14 17 15
3 16 18 19
3 16 19 17
3 18 20 21
3 18 21 19
3 20 22 23
3 20 23 21
3 22 24 25
3 22 25 23
3 24 26 27
3 24 27 25
3 26 28 29
3 26 29 27
3 28 30 31
3 28 31 29
3 30 32 33
3 30 33 31
3 32 0 3
3 32 3 33
