ply
format ascii 1.0
element vertex 12
property float x
property float y
property float z
element face 12
property list uchar int vertex_indices
end_header
19.720758 -61.789511 0.000000
9.186342 -83.588610 0.000000
9.186342 -83.588610 12.000000
19.720758 -61.789511 12.000000
14.361583 -86.074484 0.000000
14.361583 -86.074484 12.000000
9.535859 -96.052272 0.000000
9.535859 -96.052272 12.000000
-34.064052 -96.471553 0.000000
-34.064052 -96.471553 12.000000
-10.309737 -47.342625 0.000000
-10.309737 -47.342625 12.000000
3 0 1 2
3 0 2 3
3 1 4 5
3 1 5 2
3 4 6 7
3 4 7 5
3 6 8 9
3 6 9 7
3 8 10 11
3 8 11 9
3 10 0 3
3 10 3 11
