ply
format ascii 1.0
element vertex 18
property float x
property float y
property float z
element face 18
property list uchar int vertex_indices
end_header
-38.032668 -17.748363 0.000000
-21.288077 -13.505857 0.000000
-21.288077 -13.505857 12.000000
-38.032668 -17.748363 12.000000
-24.881241 1.573500 0.000000
-24.881241 1.573500 12.000000
-7.292346 9.838975 0.000000
-7.292346 9.838975 12.000000
3.432485 -15.125372 0.000000
3.432485 -15.125372 12.000000
12.876089 -24.921391 0.000000
12.876089 -24.921391 12.000000
4.112654 -32.646065 0.000000
4.112654 -32.646065 12.000000
-33.180085 -38.443020 0.000000
-33.180085 -38.443020 12.000000
-37.705877 -18.935205 0.000000
-37.705877 -18.935205 12.000000
3 0 1 2
3 0 2 3
3 1 4 5
3 1 5 2
3 4 6 7
3 4 7 5
3 6 8 9
3 6 9 7
3 8 10 11
3 8 11 9
3 10 12 13
3 10 13 11
3 12 14 15
3 12 15 13
3 14 16 17
3 14 17 15
3 16 0 3
3 16 3 17
