ply
format ascii 1.0
element vertex 22
property float x
property float y
property float z
element face 22
property list uchar int vertex_indices
end_header
95.981985 58.065690 0.000000
69.303438 33.808753 0.000000
69.303438 33.808753 6.000000
95.981985 58.065690 6.000000
76.448314 26.192735 0.000000
76.448314 26.192735 6.000000
62.170128 12.576120 0.000000
62.170128 12.576120 6.000000
59.090889 15.749410 0.000000
59.090889 15.749410 6.000000
51.385206 8.824452 0.000000
51.385206 8.824452 6.000000
39.403809 21.609850 0.000000
39.403809 21.609850 6.000000
47.354760 28.537151 0.000000
47.354760 28.537151 6.000000
13.566565 65.012448 0.000000
13.566565 65.012448 6.000000
36.142991 86.148991 0.000000
36.142991 86.148991 6.000000
68.984230 86.465256 0.000000
68.984230 86.465256 6.000000
3 0 1 2
3 0 2 3
3 1 4 5
3 1 5 2
3 4 6 7
3 4 7 5
3 6 8 9
3 6 9 7
3 8 10 11
3 8 11 9
3 10 12 13
3 10 13 11
3 12 14 15
3 12 15 13
3 14 16 17
3 14 17 15
3 16 18 19
3 16 19 17
3 18 20 21
3 18 21 19
3 20 0 3
3 20 3 21
