ply
format ascii 1.0
element vertex 16
property float x
property float y
property float z
element face 16
property list uchar int vertex_indices
end_header
85.291101 -1.225187 0.000000
66.306098 19.044068 0.000000
66.306098 19.044068 12.000000
85.291101 -1.225187 12.000000
104.992625 55.416649 0.000000
104.992625 55.416649 12.000000
114.043152 45.690826 0.000000
114.043152 45.690826 12.000000
114.126756 37.019560 0.000000
114.126756 37.019560 12.000000
109.468040 32.460845 0.000000
109.468040 32.460845 12.000000
94.040477 18.121300 0.000000
94.040477 18.121300 12.000000
99.745477 12.293092 0.000000
99.745477 12.293092 12.000000
3 0 1 2
3 0 2 3
3 1 4 5
3 1 5 2
3 4 6 7
3 4 7 5
3 6 8 9
3 6 9 7
3 8 10 11
3 8 11 9
3 10 12 13
3 10 13 11
3 12 14 15
3 12 15 13
3 14 0 3
3 14 3 15
