ply
format ascii 1.0
element vertex 12
property float x
property float y
property float z
element face 12
property list uchar int vertex_indices
end_header
14.396846 82.158423 0.000000
12.554561 83.519743 0.000000
12.554561 83.519743 3.000000
14.396846 82.158423 3.000000
7.985684 79.816861 0.000000
7.985684 79.816861 3.000000
-7.186885 96.074891 0.000000
-7.186885 96.074891 3.000000
32.177266 96.453651 0.000000
32.177266 96.453651 3.000000
15.481976 80.823181 0.000000
15.481976 80.823181 3.000000
3 0 1 2
3 0 2 3
3 1 4 5
3 1 5 2
3 4 6 7
3 4 7 5
3 6 8 9
3 6 9 7
3 8 10 11
3 8 11 9
3 10 0 3
3 10 3 11
