ply
format ascii 1.0
element vertex 18
property float x
property float y
property float z
element face 18
property list uchar int vertex_indices
end_header
-39.948078 -33.559096 0.000000
-23.203487 -29.316590 0.000000
-23.203487 -29.316590 12.000000
-39.948078 -33.559096 12.000000
-26.796651 -14.237233 0.000000
-26.796651 -14.237233 12.000000
-9.207757 -5.971758 0.000000
-9.207757 -5.971758 12.000000
1.517075 -30.936105 0.000000
1.517075 -30.936105 12.000000
10.960679 -40.732124 0.000000
10.960679 -40.732124 12.000000
2.197244 -48.456798 0.000000
2.197244 -48.456798 12.000000
-35.095496 -54.253753 0.000000
-35.095496 -54.253753 12.000000
-39.621287 -34.745938 0.000000
-39.621287 -34.745938 12.000000
3 0 1 2
3 0 2 3
3 1 4 5
3 1 5 2
3 4 6 7
3 4 7 5
3 6 8 9
3 6 9 7
3 8 10 11
3 8 11 9
3 10 12 13
3 10 13 11
3 12 14 15
3 12 15 13
3 14 16 17
3 14 17 15
3 16 0 3
3 16 3 17
