ply
format ascii 1.0
element vertex 10
property float x
property float y
property float z
element face 8
property list uchar int vertex_indices
end_header
-78.347975 -13.853993 12.000000
-74.128747 -22.621571 12.000000
-57.858666 -14.213239 12.000000
-61.694043 -6.009174 12.000000
-55.128188 -24.129483 12.000000
-67.505232 -46.746864 12.000000
-69.750988 -47.891692 12.000000
-89.880336 -30.290864 12.000000
-87.342313 -55.934545 12.000000
-97.330696 -33.910102 12.000000
3 0 1 2
3 0 2 3
3 2 1 4
3 4 1 5
3 5 1 6
3 6 1 7
3 6 7 8
3 8 7 9
