ply
format ascii 1.0
element vertex 14
property float x
property float y
property float z
element face 14
property list uchar int vertex_indices
end_header
113.006530 10.697166 0.000000
121.971569 19.291442 0.000000
121.971569 19.291442 12.000000
113.006530 10.697166 12.000000
148.046677 -8.694145 0.000000
148.046677 -8.694145 12.000000
96.032035 -30.748906 0.000000
96.032035 -30.748906 12.000000
88.866137 -23.144238 0.000000
88.866137 -23.144238 12.000000
112.942880 -0.146761 0.000000
112.942880 -0.146761 12.000000
107.329075 5.671187 0.000000
107.329075 5.671187 12.000000
3 0 1 2
3 0 2 3
3 1 4 5
3 1 5 2
3 4 6 7
3 4 7 5
3 6 8 9
3 6 9 7
3 8 10 11
3 8 11 9
3 10 12 13
3 10 13 11
3 12 0 3
3 12 3 13
