ply
format ascii 1.0
element vertex 16
property float x
property float y
property float z
element face 16
property list uchar int vertex_indices
end_header
12.481436 66.347690 0.000000
10.639151 67.709010 0.000000
10.639151 67.709010 3.000000
12.481436 66.347690 3.000000
6.070274 64.006128 0.000000
6.070274 64.006128 3.000000
-12.815702 84.243248 0.000000
-12.815702 84.243248 3.000000
-18.024641 79.322005 0.000000
-18.024641 79.322005 3.000000
-23.843409 85.571855 0.000000
-23.843409 85.571855 3.000000
36.142991 86.148991 0.000000
36.142991 86.148991 3.000000
13.566565 65.012448 0.000000
13.566565 65.012448 3.000000
3 0 1 2
3 0 2 3
3 1 4 5
3 1 5 2
3 4 6 7
3 4 7 5
3 6 8 9
3 6 9 7
3 8 10 11
3 8 11 9
3 10 12 13
3 10 13 11
3 12 14 15
3 12 15 13
3 14 0 3
3 14 3 15
