ply
format ascii 1.0
element vertex 17
property float x
property float y
property float z
element face 15
property list uchar int vertex_indices
end_header
-42.748715 -20.006837 12.000000
-41.581926 -24.733315 12.000000
-37.705877 -18.935205 12.000000
-33.180085 -38.443020 12.000000
-25.583072 -56.642351 12.000000
-31.781740 -54.132912 12.000000
-32.943502 -66.700074 12.000000
-30.923354 -67.603726 12.000000
-37.684915 -76.532430 12.000000
-40.429983 -75.313224 12.000000
-49.951737 -70.511340 12.000000
-61.906656 -64.854230 12.000000
-35.326990 -47.683249 12.000000
-35.663484 -42.570667 12.000000
-32.558177 -41.895779 12.000000
-30.004748 -50.156633 12.000000
-34.817384 -46.744158 12.000000
3 0 1 2
3 2 1 3
3 4 5 6
3 4 6 7
3 8 6 9
3 9 6 10
3 11 10 12
3 11 12 13
3 11 13 1
3 1 13 3
3 3 13 14
3 15 12 5
3 5 12 10
3 5 10 6
3 12 16 13
