ply
format ascii 1.0
element vertex 14
property float x
property float y
property float z
element face 14
property list uchar int vertex_indices
end_header
83.375691 -17.035920 0.000000
64.390688 3.233335 0.000000
64.390688 3.233335 12.000000
83.375691 -17.035920 12.000000
103.077215 39.605916 0.000000
103.077215 39.605916 12.000000
116.390991 25.298765 0.000000
116.390991 25.298765 12.000000
107.552630 16.650112 0.000000
107.552630 16.650112 12.000000
92.125067 2.310567 0.000000
92.125067 2.310567 12.000000
97.830066 -3.517641 0.000000
97.830066 -3.517641 12.000000
3 0 1 2
3 0 2 3
3 1 4 5
3 1 5 2
3 4 6 7
3 4 7 5
3 6 8 9
3 6 9 7
3 8 10 11
3 8 11 9
3 10 12 13
3 10 13 11
3 12 0 3
3 12 3 13
