ply
format ascii 1.0
element vertex 32
property float x
property float y
property float z
element face 32
property list uchar int vertex_indices
end_header
-63.822067 -80.664963 0.000000
-43.497336 -40.544048 0.000000
-43.497336 -40.544048 12.000000
-63.822067 -80.664963 12.000000
-44.664125 -35.817570 0.000000
-44.664125 -35.817570 12.000000
-39.621287 -34.745938 0.000000
-39.621287 -34.745938 12.000000
-35.095496 -54.253753 0.000000
-35.095496 -54.253753 12.000000
-34.473588 -57.706512 0.000000
-34.473588 -57.706512 12.000000
-37.578894 -58.381400 0.000000
-37.578894 -58.381400 12.000000
-36.732794 -62.554891 0.000000
-36.732794 -62.554891 12.000000
-37.242400 -63.493982 0.000000
-37.242400 -63.493982 12.000000
-31.920158 -65.967365 0.000000
-31.920158 -65.967365 12.000000
-33.697150 -69.943645 0.000000
-33.697150 -69.943645 12.000000
-27.498482 -72.453084 0.000000
-27.498482 -72.453084 12.000000
-32.838764 -83.414459 0.000000
-32.838764 -83.414459 12.000000
-34.858912 -82.510807 0.000000
-34.858912 -82.510807 12.000000
-36.615388 -86.153249 0.000000
-36.615388 -86.153249 12.000000
-51.913216 -86.300273 0.000000
-51.913216 -86.300273 12.000000
3 0 1 2
3 0 2 3
3 1 4 5
3 1 5 2
3 4 6 7
3 4 7 5
3 6 8 9
3 6 9 7
3 8 10 11
3 8 11 9
3 10 12 13
3 10 13 11
3 12 14 15
3 12 15 13
3 14 16 17
3 14 17 15
3 16 18 19
3 16 19 17
3 18 20 21
3 18 21 19
3 20 22 23
3 20 23 21
3 22 24 25
3 22 25 23
3 24 26 27
3 24 27 25
3 26 28 29
3 26 29 27
3 28 30 31
3 28 31 29
3 30 0 3
3 30 3 31
