ply
format ascii 1.0
element vertex 16
property float x
property float y
property float z
element face 14
property list uchar int vertex_indices
end_header
-44.664125 -35.817570 12.000000
-43.497336 -40.544048 12.000000
-39.621287 -34.745938 12.000000
-35.095496 -54.253753 12.000000
-27.498482 -72.453084 12.000000
-33.697150 -69.943645 12.000000
-34.858912 -82.510807 12.000000
-32.838764 -83.414459 12.000000
-36.615388 -86.153249 12.000000
-51.913216 -86.300273 12.000000
-37.242400 -63.493982 12.000000
-63.822067 -80.664963 12.000000
-37.578894 -58.381400 12.000000
-34.473588 -57.706512 12.000000
-31.920158 -65.967365 12.000000
-36.732794 -62.554891 12.000000
3 0 1 2
3 2 1 3
3 4 5 6
3 4 6 7
3 8 6 9
3 9 6 5
3 9 5 10
3 9 10 11
3 11 10 12
3 11 12 1
3 1 12 3
3 3 12 13
3 14 10 5
3 10 15 12
