ply
format ascii 1.0
element vertex 14
property float x
property float y
property float z
element face 14
property list uchar int vertex_indices
end_header
-79.464662 62.305316 0.000000
-84.472811 57.630740 0.000000
-84.472811 57.630740 12.000000
-79.464662 62.305316 12.000000
-88.670259 61.949997 0.000000
-88.670259 61.949997 12.000000
-91.184528 59.579251 0.000000
-91.184528 59.579251 12.000000
-113.786536 83.673523 0.000000
-113.786536 83.673523 12.000000
-112.666136 84.718562 0.000000
-112.666136 84.718562 12.000000
-55.336999 85.269131 0.000000
-55.336999 85.269131 12.000000
3 0 1 2
3 0 2 3
3 1 4 5
3 1 5 2
3 4 6 7
3 4 7 5
3 6 8 9
3 6 9 7
3 8 10 11
3 8 11 9
3 10 12 13
3 10 13 11
3 12 0 3
3 12 3 13
