ply
format ascii 1.0
element vertex 14
property float x
property float y
property float z
element face 14
property list uchar int vertex_indices
end_header
113.146210 93.652600 0.000000
113.026114 93.751535 0.000000
113.026114 93.751535 12.000000
113.146210 93.652600 12.000000
111.711850 94.862120 0.000000
111.711850 94.862120 12.000000
109.486089 96.742412 0.000000
109.486089 96.742412 12.000000
109.943415 97.202796 0.000000
109.943415 97.202796 12.000000
113.546164 97.237531 0.000000
113.546164 97.237531 12.000000
113.584284 93.283803 0.000000
113.584284 93.283803 12.000000
3 0 1 2
3 0 2 3
3 1 4 5
3 1 5 2
3 4 6 7
3 4 7 5
3 6 8 9
3 6 9 7
3 8 10 11
3 8 11 9
3 10 12 13
3 10 13 11
3 12 0 3
3 12 3 13
