ply
format ascii 1.0
element vertex 17
property float x
property float y
property float z
element face 15
property list uchar int vertex_indices
end_header
-77.549252 78.116049 12.000000
-75.552991 76.044410 12.000000
-59.205598 95.574829 12.000000
-55.573029 80.518070 12.000000
-50.242725 84.484003 12.000000
-46.735321 85.607601 12.000000
-37.759019 95.780934 12.000000
-45.019818 85.768666 12.000000
-41.404321 85.125013 12.000000
-35.104864 91.068754 12.000000
-40.039020 59.014100 12.000000
-46.320751 59.242881 12.000000
-55.291502 44.654446 12.000000
-52.447803 61.608454 12.000000
-56.823793 66.270733 12.000000
-80.615707 71.213609 12.000000
-58.253192 72.073461 12.000000
3 0 1 2
3 2 1 3
3 2 3 4
3 2 4 5
3 2 5 6
3 6 5 7
3 6 7 8
3 6 8 9
3 10 11 12
3 12 11 13
3 12 13 14
3 12 14 15
3 15 14 1
3 1 14 16
3 1 16 3
