ply
format ascii 1.0
element vertex 24
property float x
property float y
property float z
element face 24
property list uchar int vertex_indices
end_header
109.430252 -71.246033 0.000000
103.764319 -65.117185 0.000000
103.764319 -65.117185 12.000000
109.430252 -71.246033 12.000000
96.214363 -56.937919 0.000000
96.214363 -56.937919 12.000000
95.598139 -56.265456 0.000000
95.598139 -56.265456 12.000000
103.566598 -53.330464 0.000000
103.566598 -53.330464 12.000000
107.191087 -57.076782 0.000000
107.191087 -57.076782 12.000000
109.491652 -62.348364 0.000000
109.491652 -62.348364 12.000000
110.602585 -61.992892 0.000000
110.602585 -61.992892 12.000000
128.474606 -80.181903 0.000000
128.474606 -80.181903 12.000000
124.661356 -83.755266 0.000000
124.661356 -83.755266 12.000000
123.752783 -84.609250 0.000000
123.752783 -84.609250 12.000000
121.783184 -84.628243 0.000000
121.783184 -84.628243 12.000000
3 0 1 2
3 0 2 3
3 1 4 5
3 1 5 2
3 4 6 7
3 4 7 5
3 6 8 9
3 6 9 7
3 8 10 11
3 8 11 9
3 10 12 13
3 10 13 11
3 12 14 15
3 12 15 13
3 14 16 17
3 14 17 15
3 16 18 19
3 16 19 17
3 18 20 21
3 18 21 19
3 20 22 23
3 20 23 21
3 22 0 3
3 22 3 23
