ply
format ascii 1.0
element vertex 38
property float x
property float y
property float z
element face 38
property list uchar int vertex_indices
end_header
-43.438390 85.305631 0.000000
-41.661928 83.498806 0.000000
-41.661928 83.498806 12.000000
-43.438390 85.305631 12.000000
-37.020274 75.258022 0.000000
-37.020274 75.258022 12.000000
-43.319731 69.314280 0.000000
-43.319731 69.314280 12.000000
-46.935228 69.957933 0.000000
-46.935228 69.957933 12.000000
-48.650731 69.796868 0.000000
-48.650731 69.796868 12.000000
-52.158135 68.673270 0.000000
-52.158135 68.673270 12.000000
-57.488439 64.707337 0.000000
-57.488439 64.707337 12.000000
-60.168602 56.262728 0.000000
-60.168602 56.262728 12.000000
-58.739203 50.460000 0.000000
-58.739203 50.460000 12.000000
-54.363213 45.797721 0.000000
-54.363213 45.797721 12.000000
-48.236161 43.432148 0.000000
-48.236161 43.432148 12.000000
-41.954430 43.203367 0.000000
-41.954430 43.203367 12.000000
-57.206912 28.843713 0.000000
-57.206912 28.843713 12.000000
-82.531117 55.402876 0.000000
-82.531117 55.402876 12.000000
-77.468401 60.233677 0.000000
-77.468401 60.233677 12.000000
-79.464662 62.305316 0.000000
-79.464662 62.305316 12.000000
-55.336999 85.269131 0.000000
-55.336999 85.269131 12.000000
-43.352656 85.384305 0.000000
-43.352656 85.384305 12.000000
3 0 1 2
3 0 2 3
3 1 4 5
3 1 5 2
3 4 6 7
3 4 7 5
3 6 8 9
3 6 9 7
3 8 10 11
3 8 11 9
3 10 12 13
3 10 13 11
3 12 14 15
3 12 15 13
3 14 16 17
3 14 17 15
3 16 18 19
3 16 19 17
3 18 20 21
3 18 21 19
3 20 22 23
3 20 23 21
3 22 24 25
3 22 25 23
3 24 26 27
3 24 27 25
3 26 28 29
3 26 29 27
3 28 30 31
3 28 31 29
3 30 32 33
3 30 33 31
3 32 34 35
3 32 35 33
3 34 36 37
3 34 37 35
3 36 0 3
3 36 3 37
