ply
format ascii 1.0
element vertex 32
property float x
property float y
property float z
element face 32
property list uchar int vertex_indices
end_header
154.973214 -20.538275 0.000000
155.502633 -21.656423 0.000000
155.502633 -21.656423 12.000000
154.973214 -20.538275 12.000000
155.963434 -21.474035 0.000000
155.963434 -21.474035 12.000000
157.882745 -25.726111 0.000000
157.882745 -25.726111 12.000000
157.477792 -25.885718 0.000000
157.477792 -25.885718 12.000000
158.037390 -27.226001 0.000000
158.037390 -27.226001 12.000000
154.505579 -28.728100 0.000000
154.505579 -28.728100 12.000000
154.841279 -29.381021 0.000000
154.841279 -29.381021 12.000000
144.164207 -34.143883 0.000000
144.164207 -34.143883 12.000000
143.020205 -31.797194 0.000000
143.020205 -31.797194 12.000000
140.549720 -32.888677 0.000000
140.549720 -32.888677 12.000000
138.025956 -27.730474 0.000000
138.025956 -27.730474 12.000000
140.671099 -26.581701 0.000000
140.671099 -26.581701 12.000000
140.548640 -26.238121 0.000000
140.548640 -26.238121 12.000000
151.078642 -21.487806 0.000000
151.078642 -21.487806 12.000000
151.421349 -22.140658 0.000000
151.421349 -22.140658 12.000000
3 0 1 2
3 0 2 3
3 1 4 5
3 1 5 2
3 4 6 7
3 4 7 5
3 6 8 9
3 6 9 7
3 8 10 11
3 8 11 9
3 10 12 13
3 10 13 11
3 12 14 15
3 12 15 13
3 14 16 17
3 14 17 15
3 16 18 19
3 16 19 17
3 18 20 21
3 18 21 19
3 20 22 23
3 20 23 21
3 22 24 25
3 22 25 23
3 24 26 27
3 24 27 25
3 26 28 29
3 26 29 27
3 28 30 31
3 28 31 29
3 30 0 3
3 30 3 31
