ply
format ascii 1.0
element vertex 12
property float x
property float y
property float z
element face 10
property list uchar int vertex_indices
end_header
102.089390 86.784274 12.000000
102.415468 86.442656 12.000000
113.484272 86.894130 12.000000
111.728197 85.131147 12.000000
98.908344 72.206887 12.000000
107.209709 80.572316 12.000000
101.700643 85.712877 12.000000
93.628603 77.549852 12.000000
98.719136 72.205063 12.000000
107.570679 80.931679 12.000000
110.749653 84.131912 12.000000
111.409059 84.794429 12.000000
3 0 1 2
3 2 1 3
3 4 5 6
3 4 6 7
3 4 7 8
3 6 5 9
3 6 9 1
3 1 9 10
3 1 10 11
3 1 11 3
