ply
format ascii 1.0
element vertex 12
property float x
property float y
property float z
element face 12
property list uchar int vertex_indices
end_header
116.390991 25.298765 0.000000
118.926264 22.576238 0.000000
118.926264 22.576238 12.000000
116.390991 25.298765 12.000000
121.971569 19.291442 0.000000
121.971569 19.291442 12.000000
113.006530 10.697166 0.000000
113.006530 10.697166 12.000000
110.038740 13.938229 0.000000
110.038740 13.938229 12.000000
107.552630 16.650112 0.000000
107.552630 16.650112 12.000000
3 0 1 2
3 0 2 3
3 1 4 5
3 1 5 2
3 4 6 7
3 4 7 5
3 6 8 9
3 6 9 7
3 8 10 11
3 8 11 9
3 10 0 3
3 10 3 11
