ply
format ascii 1.0
element vertex 14
property float x
property float y
property float z
element face 14
property list uchar int vertex_indices
end_header
120.825469 -50.094575 0.000000
122.787671 -52.255438 0.000000
122.787671 -52.255438 12.000000
120.825469 -50.094575 12.000000
135.326788 -66.147402 0.000000
135.326788 -66.147402 12.000000
132.040041 -69.081775 0.000000
132.040041 -69.081775 12.000000
130.768425 -70.217296 0.000000
130.768425 -70.217296 12.000000
112.291402 -49.609673 0.000000
112.291402 -49.609673 12.000000
118.034231 -46.996392 0.000000
118.034231 -46.996392 12.000000
3 0 1 2
3 0 2 3
3 1 4 5
3 1 5 2
3 4 6 7
3 4 7 5
3 6 8 9
3 6 9 7
3 8 10 11
3 8 11 9
3 10 12 13
3 10 13 11
3 12 0 3
3 12 3 13
