ply
format ascii 1.0
element vertex 14
property float x
property float y
property float z
element face 14
property list uchar int vertex_indices
end_header
119.626185 64.098981 0.000000
114.759580 57.846342 0.000000
114.759580 57.846342 12.000000
119.626185 64.098981 12.000000
114.767552 57.746327 0.000000
114.767552 57.746327 12.000000
112.821223 57.538498 0.000000
112.821223 57.538498 12.000000
112.799342 57.627257 0.000000
112.799342 57.627257 12.000000
105.782738 65.022035 0.000000
105.782738 65.022035 12.000000
110.820465 71.698927 0.000000
110.820465 71.698927 12.000000
3 0 1 2
3 0 2 3
3 1 4 5
3 1 5 2
3 4 6 7
3 4 7 5
3 6 8 9
3 6 9 7
3 8 10 11
3 8 11 9
3 10 12 13
3 10 13 11
3 12 0 3
3 12 3 13
