ply
format ascii 1.0
element vertex 10
property float x
property float y
property float z
element face 8
property list uchar int vertex_indices
end_header
97.513549 -40.454723 12.000000
98.129773 -41.127186 12.000000
105.482008 -37.519731 12.000000
109.106497 -41.266049 12.000000
105.679729 -49.306452 12.000000
111.407062 -46.537631 12.000000
114.952830 -48.660191 12.000000
112.517995 -46.182159 12.000000
111.345662 -55.435300 12.000000
115.056914 -59.455794 12.000000
3 0 1 2
3 2 1 3
3 3 1 4
3 3 4 5
3 6 7 5
3 6 5 8
3 6 8 9
3 4 8 5
