ply
format ascii 1.0
element vertex 34
property float x
property float y
property float z
element face 34
property list uchar int vertex_indices
end_header
-35.104864 91.068754 0.000000
-41.404321 85.125013 0.000000
-41.404321 85.125013 12.000000
-35.104864 91.068754 12.000000
-45.019818 85.768666 0.000000
-45.019818 85.768666 12.000000
-46.735321 85.607601 0.000000
-46.735321 85.607601 12.000000
-50.242725 84.484003 0.000000
-50.242725 84.484003 12.000000
-55.573029 80.518070 0.000000
-55.573029 80.518070 12.000000
-58.253192 72.073461 0.000000
-58.253192 72.073461 12.000000
-56.823793 66.270733 0.000000
-56.823793 66.270733 12.000000
-52.447803 61.608454 0.000000
-52.447803 61.608454 12.000000
-46.320751 59.242881 0.000000
-46.320751 59.242881 12.000000
-40.039020 59.014100 0.000000
-40.039020 59.014100 12.000000
-55.291502 44.654446 0.000000
-55.291502 44.654446 12.000000
-80.615707 71.213609 0.000000
-80.615707 71.213609 12.000000
-75.552991 76.044410 0.000000
-75.552991 76.044410 12.000000
-77.549252 78.116049 0.000000
-77.549252 78.116049 12.000000
-59.205598 95.574829 0.000000
-59.205598 95.574829 12.000000
-37.759019 95.780934 0.000000
-37.759019 95.780934 12.000000
3 0 1 2
3 0 2 3
3 1 4 5
3 1 5 2
3 4 6 7
3 4 7 5
3 6 8 9
3 6 9 7
3 8 10 11
3 8 11 9
3 10 12 13
3 10 13 11
3 12 14 15
3 12 15 13
3 14 16 17
3 14 17 15
3 16 18 19
3 16 19 17
3 18 20 21
3 18 21 19
3 20 22 23
3 20 23 21
3 22 24 25
3 22 25 23
3 24 26 27
3 24 27 25
3 26 28 29
3 26 29 27
3 28 30 31
3 28 31 29
3 30 32 33
3 30 33 31
3 32 0 3
3 32 3 33
