ply
format ascii 1.0
element vertex 12
property float x
property float y
property float z
element face 12
property list uchar int vertex_indices
end_header
-100.069490 -46.447944 0.000000
-100.420135 -45.695060 0.000000
-100.420135 -45.695060 12.000000
-100.069490 -46.447944 12.000000
-101.944733 -42.384415 0.000000
-101.944733 -42.384415 12.000000
-94.743249 -39.123453 0.000000
-94.743249 -39.123453 12.000000
-93.284174 -42.178934 0.000000
-93.284174 -42.178934 12.000000
-92.869389 -43.042416 0.000000
-92.869389 -43.042416 12.000000
3 0 1 2
3 0 2 3
3 1 4 5
3 1 5 2
3 4 6 7
3 4 7 5
3 6 8 9
3 6 9 7
3 8 10 11
3 8 11 9
3 10 0 3
3 10 3 11
