ply
format ascii 1.0
element vertex 12
property float x
property float y
property float z
element face 12
property list uchar int vertex_indices
end_header
111.441766 94.525875 0.000000
103.875383 84.799602 0.000000
103.875383 84.799602 12.000000
111.441766 94.525875 12.000000
100.823754 88.017620 0.000000
100.823754 88.017620 12.000000
109.125119 96.383049 0.000000
109.125119 96.383049 12.000000
109.486089 96.742412 0.000000
109.486089 96.742412 12.000000
111.711850 94.862120 0.000000
111.711850 94.862120 12.000000
3 0 1 2
3 0 2 3
3 1 4 5
3 1 5 2
3 4 6 7
3 4 7 5
3 6 8 9
3 6 9 7
3 8 10 11
3 8 11 9
3 10 0 3
3 10 3 11
