ply
format ascii 1.0
element vertex 14
property float x
property float y
property float z
element face 12
property list uchar int vertex_indices
end_header
107.570679 80.931679 12.000000
109.796440 79.051387 12.000000
110.749653 84.131912 12.000000
115.418417 80.373426 12.000000
111.110703 77.940802 12.000000
111.230800 77.841867 12.000000
113.816852 75.664774 12.000000
115.849318 80.021698 12.000000
125.935691 71.889165 12.000000
122.474669 74.680610 12.000000
122.859867 68.167214 12.000000
122.930480 68.112289 12.000000
122.783533 68.088629 12.000000
116.739259 79.307391 12.000000
3 0 1 2
3 2 1 3
3 3 1 4
3 3 4 5
3 3 5 6
3 3 6 7
3 8 9 10
3 8 10 11
3 12 10 9
3 12 9 6
3 6 9 13
3 6 13 7
