ply
format ascii 1.0
element vertex 46
property float x
property float y
property float z
element face 46
property list uchar int vertex_indices
end_header
-53.636684 -75.050892 0.000000
-54.272420 -74.534297 0.000000
-54.272420 -74.534297 12.000000
-53.636684 -75.050892 12.000000
-55.721801 -76.138575 0.000000
-55.721801 -76.138575 12.000000
-54.994213 -76.732136 0.000000
-54.994213 -76.732136 12.000000
-60.535184 -83.591633 0.000000
-60.535184 -83.591633 12.000000
-62.834689 -86.438545 0.000000
-62.834689 -86.438545 12.000000
-66.419965 -88.953045 0.000000
-66.419965 -88.953045 12.000000
-66.804056 -88.367304 0.000000
-66.804056 -88.367304 12.000000
-68.266327 -89.360028 0.000000
-68.266327 -89.360028 12.000000
-67.944667 -90.013097 0.000000
-67.944667 -90.013097 12.000000
-71.599600 -92.572749 0.000000
-71.599600 -92.572749 12.000000
-79.300185 -81.091636 0.000000
-79.300185 -81.091636 12.000000
-74.160895 -77.650270 0.000000
-74.160895 -77.650270 12.000000
-73.712986 -78.313248 0.000000
-73.712986 -78.313248 12.000000
-72.006935 -77.162485 0.000000
-72.006935 -77.162485 12.000000
-72.447836 -76.499439 0.000000
-72.447836 -76.499439 12.000000
-70.964544 -75.506514 0.000000
-70.964544 -75.506514 12.000000
-69.758728 -74.082522 0.000000
-69.758728 -74.082522 12.000000
-69.292358 -74.478410 0.000000
-69.292358 -74.478410 12.000000
-67.941192 -72.863958 0.000000
-67.941192 -72.863958 12.000000
-68.379423 -72.478921 0.000000
-68.379423 -72.478921 12.000000
-61.906656 -64.854230 0.000000
-61.906656 -64.854230 12.000000
-49.951737 -70.511340 0.000000
-49.951737 -70.511340 12.000000
3 0 1 2
3 0 2 3
3 1 4 5
3 1 5 2
3 4 6 7
3 4 7 5
3 6 8 9
3 6 9 7
3 8 10 11
3 8 11 9
3 10 12 13
3 10 13 11
3 12 14 15
3 12 15 13
3 14 16 17
3 14 17 15
3 16 18 19
3 16 19 17
3 18 20 21
3 18 21 19
3 20 22 23
3 20 23 21
3 22 24 25
3 22 25 23
3 24 26 27
3 24 27 25
3 26 28 29
3 26 29 27
3 28 30 31
3 28 31 29
3 30 32 33
3 30 33 31
3 32 34 35
3 32 35 33
3 34 36 37
3 34 37 35
3 36 38 39
3 36 39 37
3 38 40 41
3 38 41 39
3 40 42 43
3 40 43 41
3 42 44 45
3 42 45 43
3 44 0 3
3 44 3 45
