ply
format ascii 1.0
element vertex 20
property float x
property float y
property float z
element face 20
property list uchar int vertex_indices
end_header
111.345662 -55.435300 0.000000
105.679729 -49.306452 0.000000
105.679729 -49.306452 12.000000
111.345662 -55.435300 12.000000
98.129773 -41.127186 0.000000
98.129773 -41.127186 12.000000
97.513549 -40.454723 0.000000
97.513549 -40.454723 12.000000
105.482008 -37.519731 0.000000
105.482008 -37.519731 12.000000
109.106497 -41.266049 0.000000
109.106497 -41.266049 12.000000
111.407062 -46.537631 0.000000
111.407062 -46.537631 12.000000
112.517995 -46.182159 0.000000
112.517995 -46.182159 12.000000
114.952830 -48.660191 0.000000
114.952830 -48.660191 12.000000
115.056914 -59.455794 0.000000
115.056914 -59.455794 12.000000
3 0 1 2
3 0 2 3
3 1 4 5
3 1 5 2
3 4 6 7
3 4 7 5
3 6 8 9
3 6 9 7
3 8 10 11
3 8 11 9
3 10 12 13
3 10 13 11
3 12 14 15
3 12 15 13
3 14 16 17
3 14 17 15
3 16 18 19
3 16 19 17
3 18 0 3
3 18 3 19
