ply
format ascii 1.0
element vertex 14
property float x
property float y
property float z
element face 14
property list uchar int vertex_indices
end_header
-155.164066 73.467531 0.000000
-158.419258 70.889529 0.000000
-158.419258 70.889529 12.000000
-155.164066 73.467531 12.000000
-159.720586 72.849855 0.000000
-159.720586 72.849855 12.000000
-159.766783 77.667593 0.000000
-159.766783 77.667593 12.000000
-158.209922 79.755244 0.000000
-158.209922 79.755244 12.000000
-156.508396 84.297946 0.000000
-156.508396 84.297946 12.000000
-151.399244 84.346943 0.000000
-151.399244 84.346943 12.000000
3 0 1 2
3 0 2 3
3 1 4 5
3 1 5 2
3 4 6 7
3 4 7 5
3 6 8 9
3 6 9 7
3 8 10 11
3 8 11 9
3 10 12 13
3 10 13 11
3 12 0 3
3 12 3 13
