ply
format ascii 1.0
element vertex 26
property float x
property float y
property float z
element face 24
property list uchar int vertex_indices
end_header
-158.419258 70.889529 12.000000
-154.963171 65.673399 12.000000
-151.475763 68.153538 12.000000
-155.164066 73.467531 12.000000
-133.751348 80.545908 12.000000
-117.465498 64.642964 12.000000
-117.396168 64.721479 12.000000
-116.900824 64.225772 12.000000
-104.478039 52.133779 12.000000
-105.001416 52.629215 12.000000
-105.188810 52.438354 12.000000
-104.720855 51.875657 12.000000
-140.323009 35.752835 12.000000
-108.081771 55.202040 12.000000
-114.229986 61.237522 12.000000
-117.109028 64.012469 12.000000
-148.781481 50.296264 12.000000
-156.939929 64.253153 12.000000
-155.749392 65.076428 12.000000
-154.934713 65.629186 12.000000
-114.042592 61.428384 12.000000
-113.616685 60.865283 12.000000
-113.540347 60.943865 12.000000
-108.368912 55.911050 12.000000
-108.438242 55.832535 12.000000
-107.873673 55.426464 12.000000
3 0 1 2
3 0 2 3
3 4 2 5
3 6 5 7
3 8 9 10
3 8 10 11
3 11 10 12
3 12 10 13
3 12 13 14
3 12 14 15
3 12 15 16
3 17 16 18
3 18 16 19
3 1 19 2
3 2 19 16
3 2 16 5
3 5 16 15
3 5 15 7
3 20 14 21
3 20 21 22
3 23 24 25
3 25 24 13
3 13 24 21
3 13 21 14
