ply
format ascii 1.0
element vertex 15
property float x
property float y
property float z
element face 13
property list uchar int vertex_indices
end_header
-90.859922 -88.854120 12.000000
-91.239983 -90.147844 12.000000
-90.775962 -90.299088 12.000000
-83.183670 -84.665516 12.000000
-83.631579 -84.002537 12.000000
-81.804852 -83.740326 12.000000
-74.687360 -94.348456 12.000000
-76.261441 -95.375616 12.000000
-75.925231 -96.084153 12.000000
-77.208824 -96.708154 12.000000
-77.136091 -96.885397 12.000000
-90.604157 -97.014727 12.000000
-91.312081 -92.128135 12.000000
-92.191096 -93.282072 12.000000
-91.797019 -91.988213 12.000000
3 0 1 2
3 0 2 3
3 0 3 4
3 5 3 6
3 6 3 7
3 8 7 9
3 10 9 11
3 11 9 12
3 11 12 13
3 13 12 14
3 2 12 9
3 2 9 3
3 3 9 7
