ply
format ascii 1.0
element vertex 10
property float x
property float y
property float z
element face 10
property list uchar int vertex_indices
end_header
119.626185 64.098981 0.000000
110.820465 71.698927 0.000000
110.820465 71.698927 12.000000
119.626185 64.098981 12.000000
113.637011 75.418371 0.000000
113.637011 75.418371 12.000000
113.816852 75.664774 0.000000
113.816852 75.664774 12.000000
122.783533 68.088629 0.000000
122.783533 68.088629 12.000000
3 0 1 2
3 0 2 3
3 1 4 5
3 1 5 2
3 4 6 7
3 4 7 5
3 6 8 9
3 6 9 7
3 8 0 3
3 8 3 9
