ply
format ascii 1.0
element vertex 20
property float x
property float y
property float z
element face 20
property list uchar int vertex_indices
end_header
107.701433 -92.537877 0.000000
109.980321 -90.469581 0.000000
109.980321 -90.469581 12.000000
107.701433 -92.537877 12.000000
106.750172 -86.919646 0.000000
106.750172 -86.919646 12.000000
107.114452 -85.448117 0.000000
107.114452 -85.448117 12.000000
108.024026 -84.560762 0.000000
108.024026 -84.560762 12.000000
109.622523 -83.889193 0.000000
109.622523 -83.889193 12.000000
113.177932 -87.736267 0.000000
113.177932 -87.736267 12.000000
115.310852 -85.794262 0.000000
115.310852 -85.794262 12.000000
115.399922 -95.032690 0.000000
115.399922 -95.032690 12.000000
110.012737 -95.084627 0.000000
110.012737 -95.084627 12.000000
3 0 1 2
3 0 2 3
3 1 4 5
3 1 5 2
3 4 6 7
3 4 7 5
3 6 8 9
3 6 9 7
3 8 10 11
3 8 11 9
3 10 12 13
3 10 13 11
3 12 14 15
3 12 15 13
3 14 16 17
3 14 17 15
3 16 18 19
3 16 19 17
3 18 0 3
3 18 3 19
