ply
format ascii 1.0
element vertex 18
property float x
property float y
property float z
element face 18
property list uchar int vertex_indices
end_header
135.510028 -84.418007 0.000000
137.612193 -82.195703 0.000000
137.612193 -82.195703 12.000000
135.510028 -84.418007 12.000000
128.329453 -72.398360 0.000000
128.329453 -72.398360 12.000000
130.768425 -70.217296 0.000000
130.768425 -70.217296 12.000000
132.040041 -69.081775 0.000000
132.040041 -69.081775 12.000000
138.070817 -75.974447 0.000000
138.070817 -75.974447 12.000000
139.863667 -78.014601 0.000000
139.863667 -78.014601 12.000000
145.464549 -84.399829 0.000000
145.464549 -84.399829 12.000000
135.583136 -84.495152 0.000000
135.583136 -84.495152 12.000000
3 0 1 2
3 0 2 3
3 1 4 5
3 1 5 2
3 4 6 7
3 4 7 5
3 6 8 9
3 6 9 7
3 8 10 11
3 8 11 9
3 10 12 13
3 10 13 11
3 12 14 15
3 12 15 13
3 14 16 17
3 14 17 15
3 16 0 3
3 16 3 17
