ply
format ascii 1.0
element vertex 19
property float x
property float y
property float z
element face 17
property list uchar int vertex_indices
end_header
-79.464662 62.305316 12.000000
-77.468401 60.233677 12.000000
-57.488439 64.707337 12.000000
-55.336999 85.269131 12.000000
-52.158135 68.673270 12.000000
-48.650731 69.796868 12.000000
-43.438390 85.305631 12.000000
-43.352656 85.384305 12.000000
-41.661928 83.498806 12.000000
-46.935228 69.957933 12.000000
-37.020274 75.258022 12.000000
-43.319731 69.314280 12.000000
-41.954430 43.203367 12.000000
-48.236161 43.432148 12.000000
-57.206912 28.843713 12.000000
-54.363213 45.797721 12.000000
-58.739203 50.460000 12.000000
-82.531117 55.402876 12.000000
-60.168602 56.262728 12.000000
3 0 1 2
3 0 2 3
3 3 2 4
3 3 4 5
3 3 5 6
3 3 6 7
3 8 6 5
3 8 5 9
3 8 9 10
3 10 9 11
3 12 13 14
3 14 13 15
3 14 15 16
3 14 16 17
3 17 16 1
3 1 16 18
3 1 18 2
