ply
format ascii 1.0
element vertex 10
property float x
property float y
property float z
element face 10
property list uchar int vertex_indices
end_header
-35.290029 -77.777243 0.000000
-45.015712 -96.576813 0.000000
-45.015712 -96.576813 12.000000
-35.290029 -77.777243 12.000000
-51.407599 -96.638236 0.000000
-51.407599 -96.638236 12.000000
-40.429983 -75.313224 0.000000
-40.429983 -75.313224 12.000000
-37.684915 -76.532430 0.000000
-37.684915 -76.532430 12.000000
3 0 1 2
3 0 2 3
3 1 4 5
3 1 5 2
3 4 6 7
3 4 7 5
3 6 8 9
3 6 9 7
3 8 0 3
3 8 3 9
