ply
format ascii 1.0
element vertex 16
property float x
property float y
property float z
element face 14
property list uchar int vertex_indices
end_header
-115.254315 80.305603 12.000000
-115.079859 62.127749 12.000000
-115.193618 79.823202 12.000000
-114.985414 80.036505 12.000000
-102.562629 67.944512 12.000000
-103.086006 68.439948 12.000000
-103.273400 68.249086 12.000000
-102.805445 67.686390 12.000000
-106.166361 71.012773 12.000000
-106.522832 71.643268 12.000000
-111.701275 76.676016 12.000000
-112.314576 77.048255 12.000000
-112.127182 77.239117 12.000000
-111.624937 76.754598 12.000000
-106.453502 71.721783 12.000000
-105.958263 71.237197 12.000000
3 0 1 2
3 0 2 3
3 4 5 6
3 4 6 7
3 7 6 1
3 1 6 8
3 1 8 9
3 1 9 10
3 1 10 11
3 1 11 2
3 12 11 10
3 12 10 13
3 14 9 15
3 15 9 8
