ply
format ascii 1.0
element vertex 12
property float x
property float y
property float z
element face 12
property list uchar int vertex_indices
end_header
109.967493 -82.595792 0.000000
105.046371 -77.393955 0.000000
105.046371 -77.393955 12.000000
109.967493 -82.595792 12.000000
104.642804 -77.698122 0.000000
104.642804 -77.698122 12.000000
92.435336 -64.036432 0.000000
92.435336 -64.036432 12.000000
96.029818 -61.032391 0.000000
96.029818 -61.032391 12.000000
113.271290 -79.972668 0.000000
113.271290 -79.972668 12.000000
3 0 1 2
3 0 2 3
3 1 4 5
3 1 5 2
3 4 6 7
3 4 7 5
3 6 8 9
3 6 9 7
3 8 10 11
3 8 11 9
3 10 0 3
3 10 3 11
