ply
format ascii 1.0
element vertex 32
property float x
property float y
property float z
element face 32
property list uchar int vertex_indices
end_header
-114.985414 80.036505 0.000000
-115.193618 79.823202 0.000000
-115.193618 79.823202 12.000000
-114.985414 80.036505 12.000000
-112.314576 77.048255 0.000000
-112.314576 77.048255 12.000000
-112.127182 77.239117 0.000000
-112.127182 77.239117 12.000000
-111.624937 76.754598 0.000000
-111.624937 76.754598 12.000000
-111.701275 76.676016 0.000000
-111.701275 76.676016 12.000000
-106.522832 71.643268 0.000000
-106.522832 71.643268 12.000000
-106.453502 71.721783 0.000000
-106.453502 71.721783 12.000000
-105.958263 71.237197 0.000000
-105.958263 71.237197 12.000000
-106.166361 71.012773 0.000000
-106.166361 71.012773 12.000000
-103.273400 68.249086 0.000000
-103.273400 68.249086 12.000000
-103.086006 68.439948 0.000000
-103.086006 68.439948 12.000000
-102.562629 67.944512 0.000000
-102.562629 67.944512 12.000000
-102.805445 67.686390 0.000000
-102.805445 67.686390 12.000000
-115.079859 62.127749 0.000000
-115.079859 62.127749 12.000000
-115.254315 80.305603 0.000000
-115.254315 80.305603 12.000000
3 0 1 2
3 0 2 3
3 1 4 5
3 1 5 2
3 4 6 7
3 4 7 5
3 6 8 9
3 6 9 7
3 8 10 11
3 8 11 9
3 10 12 13
3 10 13 11
3 12 14 15
3 12 15 13
3 14 16 17
3 14 17 15
3 16 18 19
3 16 19 17
3 18 20 21
3 18 21 19
3 20 22 23
3 20 23 21
3 22 24 25
3 22 25 23
3 24 26 27
3 24 27 25
3 26 28 29
3 26 29 27
3 28 30 31
3 28 31 29
3 30 0 3
3 30 3 31
