ply
format ascii 1.0
element vertex 14
property float x
property float y
property float z
element face 14
property list uchar int vertex_indices
end_header
76.279503 -76.314335 0.000000
84.246225 -84.990075 0.000000
84.246225 -84.990075 12.000000
76.279503 -76.314335 12.000000
73.856374 -85.090178 0.000000
73.856374 -85.090178 12.000000
72.162620 -83.293716 0.000000
72.162620 -83.293716 12.000000
67.468052 -78.323212 0.000000
67.468052 -78.323212 12.000000
76.540459 -68.482395 0.000000
76.540459 -68.482395 12.000000
80.319113 -72.227246 0.000000
80.319113 -72.227246 12.000000
3 0 1 2
3 0 2 3
3 1 4 5
3 1 5 2
3 4 6 7
3 4 7 5
3 6 8 9
3 6 9 7
3 8 10 11
3 8 11 9
3 10 12 13
3 10 13 11
3 12 0 3
3 12 3 13
