ply
format ascii 1.0
element vertex 10
property float x
property float y
property float z
element face 8
property list uchar int vertex_indices
end_header
109.796440 79.051387 12.000000
109.526356 78.715142 12.000000
111.110703 77.940802 12.000000
113.816852 75.664774 12.000000
111.230800 77.841867 12.000000
113.637011 75.418371 12.000000
105.782738 65.022035 12.000000
110.820465 71.698927 12.000000
104.600440 66.256228 12.000000
101.959973 68.988869 12.000000
3 0 1 2
3 3 4 5
3 6 7 8
3 9 8 7
3 9 7 1
3 1 7 2
3 2 7 4
3 4 7 5
