ply
format ascii 1.0
element vertex 10
property float x
property float y
property float z
element face 10
property list uchar int vertex_indices
end_header
149.220421 -62.065291 0.000000
153.475705 -57.820363 0.000000
153.475705 -57.820363 12.000000
149.220421 -62.065291 12.000000
158.879988 -52.808092 0.000000
158.879988 -52.808092 12.000000
159.538111 -53.463903 0.000000
159.538111 -53.463903 12.000000
159.732939 -73.652501 0.000000
159.732939 -73.652501 12.000000
3 0 1 2
3 0 2 3
3 1 4 5
3 1 5 2
3 4 6 7
3 4 7 5
3 6 8 9
3 6 9 7
3 8 0 3
3 8 3 9
