ply
format ascii 1.0
element vertex 50
property float x
property float y
property float z
element face 50
property list uchar int vertex_indices
end_header
132.078281 79.544292 0.000000
131.780489 79.174415 0.000000
131.780489 79.174415 12.000000
132.078281 79.544292 12.000000
130.417597 80.240040 0.000000
130.417597 80.240040 12.000000
129.496726 79.074538 0.000000
129.496726 79.074538 12.000000
130.337186 78.404242 0.000000
130.337186 78.404242 12.000000
130.309370 78.381731 0.000000
130.309370 78.381731 12.000000
130.212442 78.258461 0.000000
130.212442 78.258461 12.000000
128.834353 77.266491 0.000000
128.834353 77.266491 12.000000
127.709614 76.165751 0.000000
127.709614 76.165751 12.000000
127.079419 75.381178 0.000000
127.079419 75.381178 12.000000
126.251363 74.038630 0.000000
126.251363 74.038630 12.000000
125.724960 72.665628 0.000000
125.724960 72.665628 12.000000
126.247500 72.259177 0.000000
126.247500 72.259177 12.000000
125.935691 71.889165 0.000000
125.935691 71.889165 12.000000
122.474669 74.680610 0.000000
122.474669 74.680610 12.000000
116.739259 79.307391 0.000000
116.739259 79.307391 12.000000
115.849318 80.021698 0.000000
115.849318 80.021698 12.000000
115.418417 80.373426 0.000000
115.418417 80.373426 12.000000
110.749653 84.131912 0.000000
110.749653 84.131912 12.000000
111.409059 84.794429 0.000000
111.409059 84.794429 12.000000
111.728197 85.131147 0.000000
111.728197 85.131147 12.000000
113.484272 86.894130 0.000000
113.484272 86.894130 12.000000
133.705869 87.089145 0.000000
133.705869 87.089145 12.000000
134.082341 85.391209 0.000000
134.082341 85.391209 12.000000
134.654042 82.794328 0.000000
134.654042 82.794328 12.000000
3 0 1 2
3 0 2 3
3 1 4 5
3 1 5 2
3 4 6 7
3 4 7 5
3 6 8 9
3 6 9 7
3 8 10 11
3 8 11 9
3 10 12 13
3 10 13 11
3 12 14 15
3 12 15 13
3 14 16 17
3 14 17 15
3 16 18 19
3 16 19 17
3 18 20 21
3 18 21 19
3 20 22 23
3 20 23 21
3 22 24 25
3 22 25 23
3 24 26 27
3 24 27 25
3 26 28 29
3 26 29 27
3 28 30 31
3 28 31 29
3 30 32 33
3 30 33 31
3 32 34 35
3 32 35 33
3 34 36 37
3 34 37 35
3 36 38 39
3 36 39 37
3 38 40 41
3 38 41 39
3 40 42 43
3 40 43 41
3 42 44 45
3 42 45 43
3 44 46 47
3 44 47 45
3 46 48 49
3 46 49 47
3 48 0 3
3 48 3 49
