ply
format ascii 1.0
element vertex 12
property float x
property float y
property float z
element face 12
property list uchar int vertex_indices
end_header
-98.154080 -30.637212 0.000000
-98.504725 -29.884327 0.000000
-98.504725 -29.884327 12.000000
-98.154080 -30.637212 12.000000
-100.029322 -26.573682 0.000000
-100.029322 -26.573682 12.000000
-92.827839 -23.312720 0.000000
-92.827839 -23.312720 12.000000
-91.368764 -26.368201 0.000000
-91.368764 -26.368201 12.000000
-90.953979 -27.231683 0.000000
-90.953979 -27.231683 12.000000
3 0 1 2
3 0 2 3
3 1 4 5
3 1 5 2
3 4 6 7
3 4 7 5
3 6 8 9
3 6 9 7
3 8 10 11
3 8 11 9
3 10 0 3
3 10 3 11
