ply
format ascii 1.0
element vertex 16
property float x
property float y
property float z
element face 14
property list uchar int vertex_indices
end_header
138.025956 -27.730474 12.000000
140.549720 -32.888677 12.000000
140.671099 -26.581701 12.000000
140.548640 -26.238121 12.000000
151.078642 -21.487806 12.000000
151.421349 -22.140658 12.000000
154.973214 -20.538275 12.000000
155.502633 -21.656423 12.000000
155.963434 -21.474035 12.000000
157.477792 -25.885718 12.000000
157.882745 -25.726111 12.000000
158.037390 -27.226001 12.000000
154.505579 -28.728100 12.000000
154.841279 -29.381021 12.000000
144.164207 -34.143883 12.000000
143.020205 -31.797194 12.000000
3 0 1 2
3 3 2 4
3 4 2 5
3 6 5 7
3 8 7 9
3 8 9 10
3 11 9 12
3 13 12 14
3 14 12 15
3 1 15 2
3 2 15 5
3 5 15 12
3 5 12 9
3 5 9 7
