ply
format ascii 1.0
element vertex 14
property float x
property float y
property float z
element face 14
property list uchar int vertex_indices
end_header
110.012737 -95.084627 0.000000
99.897650 -95.182129 0.000000
99.897650 -95.182129 12.000000
110.012737 -95.084627 12.000000
98.319012 -93.484657 0.000000
98.319012 -93.484657 12.000000
102.878722 -89.548237 0.000000
102.878722 -89.548237 12.000000
104.216733 -90.936630 0.000000
104.216733 -90.936630 12.000000
105.265931 -89.992323 0.000000
105.265931 -89.992323 12.000000
107.701433 -92.537877 0.000000
107.701433 -92.537877 12.000000
3 0 1 2
3 0 2 3
3 1 4 5
3 1 5 2
3 4 6 7
3 4 7 5
3 6 8 9
3 6 9 7
3 8 10 11
3 8 11 9
3 10 12 13
3 10 13 11
3 12 0 3
3 12 3 13
