ply
format ascii 1.0
element vertex 14
property float x
property float y
property float z
element face 13
property list uchar int vertex_indices
end_header
69.383462 -62.512479 12.000000
61.211375 -85.790314 12.000000
74.078030 -67.482983 12.000000
66.503300 -86.562325 12.000000
83.184090 -77.137551 12.000000
70.159542 -87.783819 12.000000
80.388075 -88.819659 12.000000
80.585905 -95.368225 12.000000
79.821899 -94.797276 12.000000
66.069640 -95.508062 12.000000
77.196615 -92.920818 12.000000
73.837363 -90.517606 12.000000
66.265978 -90.301382 12.000000
61.248170 -90.338589 12.000000
3 0 1 2
3 2 1 3
3 4 5 6
3 7 8 9
3 9 8 10
3 9 10 11
3 9 11 12
3 13 12 3
3 13 3 1
3 3 12 5
3 5 12 11
3 5 11 6
3 6 11 10
