ply
format ascii 1.0
element vertex 23
property float x
property float y
property float z
element face 21
property list uchar int vertex_indices
end_header
-79.300185 -81.091636 12.000000
-71.599600 -92.572749 12.000000
-68.266327 -89.360028 12.000000
-73.712986 -78.313248 12.000000
-74.160895 -77.650270 12.000000
-61.906656 -64.854230 12.000000
-68.379423 -72.478921 12.000000
-67.941192 -72.863958 12.000000
-55.721801 -76.138575 12.000000
-54.272420 -74.534297 12.000000
-49.951737 -70.511340 12.000000
-53.636684 -75.050892 12.000000
-62.834689 -86.438545 12.000000
-60.535184 -83.591633 12.000000
-72.006935 -77.162485 12.000000
-66.804056 -88.367304 12.000000
-66.419965 -88.953045 12.000000
-67.944667 -90.013097 12.000000
-69.292358 -74.478410 12.000000
-54.994213 -76.732136 12.000000
-70.964544 -75.506514 12.000000
-72.447836 -76.499439 12.000000
-69.758728 -74.082522 12.000000
3 0 1 2
3 0 2 3
3 0 3 4
3 5 6 7
3 5 7 8
3 5 8 9
3 5 9 10
3 10 9 11
3 12 13 14
3 12 14 15
3 12 15 16
3 1 17 2
3 2 15 3
3 3 15 14
3 7 18 13
3 7 13 8
3 8 13 19
3 13 18 14
3 14 18 20
3 14 20 21
3 22 20 18
