ply
format ascii 1.0
element vertex 16
property float x
property float y
property float z
element face 16
property list uchar int vertex_indices
end_header
146.648979 -59.231914 0.000000
134.790435 -46.145271 0.000000
134.790435 -46.145271 12.000000
146.648979 -59.231914 12.000000
134.308751 -45.616093 0.000000
134.308751 -45.616093 12.000000
144.563066 -44.249341 0.000000
144.563066 -44.249341 12.000000
145.148372 -46.801604 0.000000
145.148372 -46.801604 12.000000
147.028888 -50.664811 0.000000
147.028888 -50.664811 12.000000
151.725763 -55.868770 0.000000
151.725763 -55.868770 12.000000
147.258203 -59.904439 0.000000
147.258203 -59.904439 12.000000
3 0 1 2
3 0 2 3
3 1 4 5
3 1 5 2
3 4 6 7
3 4 7 5
3 6 8 9
3 6 9 7
3 8 10 11
3 8 11 9
3 10 12 13
3 10 13 11
3 12 14 15
3 12 15 13
3 14 0 3
3 14 3 15
