ply
format ascii 1.0
element vertex 10
property float x
property float y
property float z
element face 10
property list uchar int vertex_indices
end_header
139.863667 -78.014601 0.000000
143.456725 -74.865962 0.000000
143.456725 -74.865962 12.000000
139.863667 -78.014601 12.000000
151.126454 -83.099612 0.000000
151.126454 -83.099612 12.000000
149.780689 -84.358187 0.000000
149.780689 -84.358187 12.000000
145.464549 -84.399829 0.000000
145.464549 -84.399829 12.000000
3 0 1 2
3 0 2 3
3 1 4 5
3 1 5 2
3 4 6 7
3 4 7 5
3 6 8 9
3 6 9 7
3 8 0 3
3 8 3 9
