ply
format ascii 1.0
element vertex 16
property float x
property float y
property float z
element face 16
property list uchar int vertex_indices
end_header
145.929436 -68.191541 0.000000
155.126968 -79.324238 0.000000
155.126968 -79.324238 12.000000
145.929436 -68.191541 12.000000
151.126454 -83.099612 0.000000
151.126454 -83.099612 12.000000
143.456725 -74.865962 0.000000
143.456725 -74.865962 12.000000
141.594225 -72.870966 0.000000
141.594225 -72.870966 12.000000
137.052378 -67.754474 0.000000
137.052378 -67.754474 12.000000
141.226157 -63.777255 0.000000
141.226157 -63.777255 12.000000
141.823473 -63.215425 0.000000
141.823473 -63.215425 12.000000
3 0 1 2
3 0 2 3
3 1 4 5
3 1 5 2
3 4 6 7
3 4 7 5
3 6 8 9
3 6 9 7
3 8 10 11
3 8 11 9
3 10 12 13
3 10 13 11
3 12 14 15
3 12 15 13
3 14 0 3
3 14 3 15
