ply
format ascii 1.0
element vertex 52
property float x
property float y
property float z
element face 52
property list uchar int vertex_indices
end_header
-117.396168 64.721479 0.000000
-116.900824 64.225772 0.000000
-116.900824 64.225772 12.000000
-117.396168 64.721479 12.000000
-117.109028 64.012469 0.000000
-117.109028 64.012469 12.000000
-114.229986 61.237522 0.000000
-114.229986 61.237522 12.000000
-114.042592 61.428384 0.000000
-114.042592 61.428384 12.000000
-113.540347 60.943865 0.000000
-113.540347 60.943865 12.000000
-113.616685 60.865283 0.000000
-113.616685 60.865283 12.000000
-108.438242 55.832535 0.000000
-108.438242 55.832535 12.000000
-108.368912 55.911050 0.000000
-108.368912 55.911050 12.000000
-107.873673 55.426464 0.000000
-107.873673 55.426464 12.000000
-108.081771 55.202040 0.000000
-108.081771 55.202040 12.000000
-105.188810 52.438354 0.000000
-105.188810 52.438354 12.000000
-105.001416 52.629215 0.000000
-105.001416 52.629215 12.000000
-104.478039 52.133779 0.000000
-104.478039 52.133779 12.000000
-104.720855 51.875657 0.000000
-104.720855 51.875657 12.000000
-140.323009 35.752835 0.000000
-140.323009 35.752835 12.000000
-148.781481 50.296264 0.000000
-148.781481 50.296264 12.000000
-156.939929 64.253153 0.000000
-156.939929 64.253153 12.000000
-155.749392 65.076428 0.000000
-155.749392 65.076428 12.000000
-154.934713 65.629186 0.000000
-154.934713 65.629186 12.000000
-154.963171 65.673399 0.000000
-154.963171 65.673399 12.000000
-158.419258 70.889529 0.000000
-158.419258 70.889529 12.000000
-155.164066 73.467531 0.000000
-155.164066 73.467531 12.000000
-151.475763 68.153538 0.000000
-151.475763 68.153538 12.000000
-133.751348 80.545908 0.000000
-133.751348 80.545908 12.000000
-117.465498 64.642964 0.000000
-117.465498 64.642964 12.000000
3 0 1 2
3 0 2 3
3 1 4 5
3 1 5 2
3 4 6 7
3 4 7 5
3 6 8 9
3 6 9 7
3 8 10 11
3 8 11 9
3 10 12 13
3 10 13 11
3 12 14 15
3 12 15 13
3 14 16 17
3 14 17 15
3 16 18 19
3 16 19 17
3 18 20 21
3 18 21 19
3 20 22 23
3 20 23 21
3 22 24 25
3 22 25 23
3 24 26 27
3 24 27 25
3 26 28 29
3 26 29 27
3 28 30 31
3 28 31 29
3 30 32 33
3 30 33 31
3 32 34 35
3 32 35 33
3 34 36 37
3 34 37 35
3 36 38 39
3 36 39 37
3 38 40 41
3 38 41 39
3 40 42 43
3 40 43 41
3 42 44 45
3 42 45 43
3 44 46 47
3 44 47 45
3 46 48 49
3 46 49 47
3 48 50 51
3 48 51 49
3 50 0 3
3 50 3 51
