ply
format ascii 1.0
element vertex 12
property float x
property float y
property float z
element face 10
property list uchar int vertex_indices
end_header
95.598139 -56.265456 12.000000
96.214363 -56.937919 12.000000
103.566598 -53.330464 12.000000
107.191087 -57.076782 12.000000
103.764319 -65.117185 12.000000
109.491652 -62.348364 12.000000
128.474606 -80.181903 12.000000
110.602585 -61.992892 12.000000
109.430252 -71.246033 12.000000
121.783184 -84.628243 12.000000
124.661356 -83.755266 12.000000
123.752783 -84.609250 12.000000
3 0 1 2
3 2 1 3
3 3 1 4
3 3 4 5
3 6 7 8
3 6 8 9
3 6 9 10
3 11 10 9
3 4 8 5
3 5 8 7
