ply
format ascii 1.0
element vertex 10
property float x
property float y
property float z
element face 8
property list uchar int vertex_indices
end_header
107.114452 -85.448117 12.000000
106.750172 -86.919646 12.000000
108.024026 -84.560762 12.000000
113.177932 -87.736267 12.000000
109.622523 -83.889193 12.000000
115.310852 -85.794262 12.000000
115.399922 -95.032690 12.000000
109.980321 -90.469581 12.000000
110.012737 -95.084627 12.000000
107.701433 -92.537877 12.000000
3 0 1 2
3 2 1 3
3 2 3 4
3 5 3 6
3 6 3 7
3 6 7 8
3 8 7 9
3 1 7 3
