ply
format ascii 1.0
element vertex 18
property float x
property float y
property float z
element face 18
property list uchar int vertex_indices
end_header
78.194913 -60.503603 0.000000
94.209366 -77.943260 0.000000
94.209366 -77.943260 12.000000
78.194913 -60.503603 12.000000
88.616191 -83.001765 0.000000
88.616191 -83.001765 12.000000
83.184090 -77.137551 0.000000
83.184090 -77.137551 12.000000
79.190468 -72.905432 0.000000
79.190468 -72.905432 12.000000
74.078030 -67.482983 0.000000
74.078030 -67.482983 12.000000
69.383462 -62.512479 0.000000
69.383462 -62.512479 12.000000
78.455869 -52.671662 0.000000
78.455869 -52.671662 12.000000
82.234523 -56.416513 0.000000
82.234523 -56.416513 12.000000
3 0 1 2
3 0 2 3
3 1 4 5
3 1 5 2
3 4 6 7
3 4 7 5
3 6 8 9
3 6 9 7
3 8 10 11
3 8 11 9
3 10 12 13
3 10 13 11
3 12 14 15
3 12 15 13
3 14 16 17
3 14 17 15
3 16 0 3
3 16 3 17
