ply
format ascii 1.0
element vertex 30
property float x
property float y
property float z
element face 30
property list uchar int vertex_indices
end_header
66.503300 -86.562325 0.000000
70.159542 -87.783819 0.000000
70.159542 -87.783819 12.000000
66.503300 -86.562325 12.000000
73.837363 -90.517606 0.000000
73.837363 -90.517606 12.000000
79.190468 -72.905432 0.000000
79.190468 -72.905432 12.000000
83.184090 -77.137551 0.000000
83.184090 -77.137551 12.000000
80.388075 -88.819659 0.000000
80.388075 -88.819659 12.000000
77.196615 -92.920818 0.000000
77.196615 -92.920818 12.000000
79.821899 -94.797276 0.000000
79.821899 -94.797276 12.000000
80.585905 -95.368225 0.000000
80.585905 -95.368225 12.000000
66.069640 -95.508062 0.000000
66.069640 -95.508062 12.000000
66.265978 -90.301382 0.000000
66.265978 -90.301382 12.000000
61.248170 -90.338589 0.000000
61.248170 -90.338589 12.000000
61.211375 -85.790314 0.000000
61.211375 -85.790314 12.000000
69.383462 -62.512479 0.000000
69.383462 -62.512479 12.000000
74.078030 -67.482983 0.000000
74.078030 -67.482983 12.000000
3 0 1 2
3 0 2 3
3 1 4 5
3 1 5 2
3 4 6 7
3 4 7 5
3 6 8 9
3 6 9 7
3 8 10 11
3 8 11 9
3 10 12 13
3 10 13 11
3 12 14 15
3 12 15 13
3 14 16 17
3 14 17 15
3 16 18 19
3 16 19 17
3 18 20 21
3 18 21 19
3 20 22 23
3 20 23 21
3 22 24 25
3 22 25 23
3 24 26 27
3 24 27 25
3 26 28 29
3 26 29 27
3 28 0 3
3 28 3 29
