ply
format ascii 1.0
element vertex 16
property float x
property float y
property float z
element face 16
property list uchar int vertex_indices
end_header
-136.662982 29.737937 0.000000
-151.438615 23.357140 0.000000
-151.438615 23.357140 12.000000
-136.662982 29.737937 12.000000
-152.548693 22.912762 0.000000
-152.548693 22.912762 12.000000
-159.354002 34.619844 0.000000
-159.354002 34.619844 12.000000
-159.620630 62.425736 0.000000
-159.620630 62.425736 12.000000
-156.939929 64.253153 0.000000
-156.939929 64.253153 12.000000
-148.781481 50.296264 0.000000
-148.781481 50.296264 12.000000
-140.323009 35.752835 0.000000
-140.323009 35.752835 12.000000
3 0 1 2
3 0 2 3
3 1 4 5
3 1 5 2
3 4 6 7
3 4 7 5
3 6 8 9
3 6 9 7
3 8 10 11
3 8 11 9
3 10 12 13
3 10 13 11
3 12 14 15
3 12 15 13
3 14 0 3
3 14 3 15
