ply
format ascii 1.0
element vertex 12
property float x
property float y
property float z
element face 12
property list uchar int vertex_indices
end_header
102.415468 86.442656 0.000000
101.700643 85.712877 0.000000
101.700643 85.712877 12.000000
102.415468 86.442656 12.000000
93.628603 77.549852 0.000000
93.628603 77.549852 12.000000
90.335829 81.065827 0.000000
90.335829 81.065827 12.000000
96.063736 86.726192 0.000000
96.063736 86.726192 12.000000
102.089390 86.784274 0.000000
102.089390 86.784274 12.000000
3 0 1 2
3 0 2 3
3 1 4 5
3 1 5 2
3 4 6 7
3 4 7 5
3 6 8 9
3 6 9 7
3 8 10 11
3 8 11 9
3 10 0 3
3 10 3 11
