ply
format ascii 1.0
element vertex 12
property float x
property float y
property float z
element face 12
property list uchar int vertex_indices
end_header
109.526356 78.715142 0.000000
101.959973 68.988869 0.000000
101.959973 68.988869 12.000000
109.526356 78.715142 12.000000
98.908344 72.206887 0.000000
98.908344 72.206887 12.000000
107.209709 80.572316 0.000000
107.209709 80.572316 12.000000
107.570679 80.931679 0.000000
107.570679 80.931679 12.000000
109.796440 79.051387 0.000000
109.796440 79.051387 12.000000
3 0 1 2
3 0 2 3
3 1 4 5
3 1 5 2
3 4 6 7
3 4 7 5
3 6 8 9
3 6 9 7
3 8 10 11
3 8 11 9
3 10 0 3
3 10 3 11
