ply
format ascii 1.0
element vertex 30
property float x
property float y
property float z
element face 30
property list uchar int vertex_indices
end_header
-76.261441 -95.375616 0.000000
-75.925231 -96.084153 0.000000
-75.925231 -96.084153 12.000000
-76.261441 -95.375616 12.000000
-77.208824 -96.708154 0.000000
-77.208824 -96.708154 12.000000
-77.136091 -96.885397 0.000000
-77.136091 -96.885397 12.000000
-90.604157 -97.014727 0.000000
-90.604157 -97.014727 12.000000
-92.191096 -93.282072 0.000000
-92.191096 -93.282072 12.000000
-91.797019 -91.988213 0.000000
-91.797019 -91.988213 12.000000
-91.312081 -92.128135 0.000000
-91.312081 -92.128135 12.000000
-90.775962 -90.299088 0.000000
-90.775962 -90.299088 12.000000
-91.239983 -90.147844 0.000000
-91.239983 -90.147844 12.000000
-90.859922 -88.854120 0.000000
-90.859922 -88.854120 12.000000
-83.631579 -84.002537 0.000000
-83.631579 -84.002537 12.000000
-83.183670 -84.665516 0.000000
-83.183670 -84.665516 12.000000
-81.804852 -83.740326 0.000000
-81.804852 -83.740326 12.000000
-74.687360 -94.348456 0.000000
-74.687360 -94.348456 12.000000
3 0 1 2
3 0 2 3
3 1 4 5
3 1 5 2
3 4 6 7
3 4 7 5
3 6 8 9
3 6 9 7
3 8 10 11
3 8 11 9
3 10 12 13
3 10 13 11
3 12 14 15
3 12 15 13
3 14 16 17
3 14 17 15
3 16 18 19
3 16 19 17
3 18 20 21
3 18 21 19
3 20 22 23
3 20 23 21
3 22 24 25
3 22 25 23
3 24 26 27
3 24 27 25
3 26 28 29
3 26 29 27
3 28 0 3
3 28 3 29
