ply
format ascii 1.0
element vertex 10
property float x
property float y
property float z
element face 10
property list uchar int vertex_indices
end_header
99.897650 -95.182129 0.000000
92.058450 -95.257679 0.000000
92.058450 -95.257679 12.000000
99.897650 -95.182129 12.000000
90.433185 -94.094479 0.000000
90.433185 -94.094479 12.000000
94.898905 -89.858696 0.000000
94.898905 -89.858696 12.000000
98.319012 -93.484657 0.000000
98.319012 -93.484657 12.000000
3 0 1 2
3 0 2 3
3 1 4 5
3 1 5 2
3 4 6 7
3 4 7 5
3 6 8 9
3 6 9 7
3 8 0 3
3 8 3 9
