ply
format ascii 1.0
element vertex 16
property float x
property float y
property float z
element face 16
property list uchar int vertex_indices
end_header
155.126968 -79.324238 0.000000
145.929436 -68.191541 0.000000
145.929436 -68.191541 12.000000
155.126968 -79.324238 12.000000
141.823473 -63.215425 0.000000
141.823473 -63.215425 12.000000
146.648979 -59.231914 0.000000
146.648979 -59.231914 12.000000
147.258203 -59.904439 0.000000
147.258203 -59.904439 12.000000
149.220421 -62.065291 0.000000
149.220421 -62.065291 12.000000
159.732939 -73.652501 0.000000
159.732939 -73.652501 12.000000
159.746165 -75.023007 0.000000
159.746165 -75.023007 12.000000
3 0 1 2
3 0 2 3
3 1 4 5
3 1 5 2
3 4 6 7
3 4 7 5
3 6 8 9
3 6 9 7
3 8 10 11
3 8 11 9
3 10 12 13
3 10 13 11
3 12 14 15
3 12 15 13
3 14 0 3
3 14 3 15
