ply
format ascii 1.0
element vertex 10
property float x
property float y
property float z
element face 8
property list uchar int vertex_indices
end_header
111.711850 94.862120 12.000000
111.441766 94.525875 12.000000
113.026114 93.751535 12.000000
113.584284 93.283803 12.000000
113.146210 93.652600 12.000000
113.628589 88.688550 12.000000
107.698148 80.832768 12.000000
112.735876 87.509660 12.000000
106.515850 82.066961 12.000000
103.875383 84.799602 12.000000
3 0 1 2
3 3 4 5
3 6 7 8
3 9 8 7
3 9 7 1
3 1 7 5
3 1 5 2
3 2 5 4
