ply
format ascii 1.0
element vertex 14
property float x
property float y
property float z
element face 14
property list uchar int vertex_indices
end_header
109.486089 96.742412 0.000000
109.125119 96.383049 0.000000
109.125119 96.383049 12.000000
109.486089 96.742412 12.000000
100.823754 88.017620 0.000000
100.823754 88.017620 12.000000
100.634546 88.015796 0.000000
100.634546 88.015796 12.000000
95.544013 93.360585 0.000000
95.544013 93.360585 12.000000
99.241388 97.099631 0.000000
99.241388 97.099631 12.000000
109.943415 97.202796 0.000000
109.943415 97.202796 12.000000
3 0 1 2
3 0 2 3
3 1 4 5
3 1 5 2
3 4 6 7
3 4 7 5
3 6 8 9
3 6 9 7
3 8 10 11
3 8 11 9
3 10 12 13
3 10 13 11
3 12 0 3
3 12 3 13
